<mxfile host="Electron" agent="Mozilla/5.0 (Windows NT 10.0; Win64; x64) AppleWebKit/537.36 (KHTML, like Gecko) draw.io/28.2.8 Chrome/140.0.7339.240 Electron/38.4.0 Safari/537.36" version="28.2.8">
  <diagram name="Page-1" id="h-hGsHWyxdlVVV0W9ACe">
    <mxGraphModel dx="2066" dy="1236" grid="1" gridSize="10" guides="1" tooltips="1" connect="1" arrows="1" fold="1" page="1" pageScale="1" pageWidth="1169" pageHeight="827" math="0" shadow="0">
      <root>
        <mxCell id="0" />
        <mxCell id="1" parent="0" />
        <mxCell id="wnymyDq5whZ8nQDAgxUW-1" value="" style="rounded=0;whiteSpace=wrap;html=1;dashed=1;strokeWidth=1;labelBackgroundColor=default;" parent="1" vertex="1">
          <mxGeometry x="55" y="249" width="160" height="310" as="geometry" />
        </mxCell>
        <mxCell id="wnymyDq5whZ8nQDAgxUW-2" value="&lt;p&gt;Sources&lt;/p&gt;" style="text;html=1;align=center;verticalAlign=middle;whiteSpace=wrap;rounded=0;fontSize=21;fillColor=default;" parent="1" vertex="1">
          <mxGeometry x="75" y="260" width="120" height="30" as="geometry" />
        </mxCell>
        <mxCell id="wnymyDq5whZ8nQDAgxUW-3" value="&lt;b&gt;CRM&lt;/b&gt;" style="image;aspect=fixed;html=1;points=[];align=center;fontSize=12;image=img/lib/azure2/general/Folder_Blank.svg;" parent="1" vertex="1">
          <mxGeometry x="90" y="315.88" width="79" height="64.12" as="geometry" />
        </mxCell>
        <mxCell id="wnymyDq5whZ8nQDAgxUW-5" value="" style="image;aspect=fixed;html=1;points=[];align=center;fontSize=12;image=img/lib/azure2/general/Folder_Blank.svg;" parent="1" vertex="1">
          <mxGeometry x="90" y="440" width="79" height="64.12" as="geometry" />
        </mxCell>
        <mxCell id="wnymyDq5whZ8nQDAgxUW-6" value="" style="image;aspect=fixed;html=1;points=[];align=center;fontSize=12;image=img/lib/azure2/general/File.svg;" parent="1" vertex="1">
          <mxGeometry x="157.32999999999998" y="490" width="24.35" height="30" as="geometry" />
        </mxCell>
        <mxCell id="wnymyDq5whZ8nQDAgxUW-7" value="&lt;b&gt;ERP&lt;/b&gt;" style="text;html=1;align=center;verticalAlign=middle;whiteSpace=wrap;rounded=0;" parent="1" vertex="1">
          <mxGeometry x="97.33" y="510" width="60" height="30" as="geometry" />
        </mxCell>
        <mxCell id="wnymyDq5whZ8nQDAgxUW-9" value="&lt;font&gt;Data Flow Diagram&lt;/font&gt;" style="text;html=1;align=center;verticalAlign=middle;whiteSpace=wrap;rounded=0;fontStyle=1;fontSize=26;" parent="1" vertex="1">
          <mxGeometry x="390" y="40" width="320" height="30" as="geometry" />
        </mxCell>
        <mxCell id="OHG60xEiqbtdB1rDb5B0-1" value="Bronze Layer" style="rounded=0;whiteSpace=wrap;html=1;fontSize=20;labelBackgroundColor=none;fillColor=#f0a30a;strokeColor=#BD7000;fontStyle=1;fontColor=#000000;" parent="1" vertex="1">
          <mxGeometry x="294" y="210" width="205" height="40" as="geometry" />
        </mxCell>
        <mxCell id="OHG60xEiqbtdB1rDb5B0-2" value="" style="rounded=0;whiteSpace=wrap;html=1;fontSize=20;labelBackgroundColor=default;fillColor=none;strokeColor=#BD7000;fontColor=#000000;" parent="1" vertex="1">
          <mxGeometry x="294" y="250" width="206" height="330" as="geometry" />
        </mxCell>
        <mxCell id="OHG60xEiqbtdB1rDb5B0-3" value="crm_sales_details" style="rounded=0;whiteSpace=wrap;html=1;fillColor=#f0a30a;fontColor=#000000;strokeColor=#BD7000;fontStyle=1" parent="1" vertex="1">
          <mxGeometry x="336.5" y="300" width="120" height="30" as="geometry" />
        </mxCell>
        <mxCell id="OHG60xEiqbtdB1rDb5B0-4" value="crm_cust_info" style="rounded=0;whiteSpace=wrap;html=1;fillColor=#f0a30a;fontColor=#000000;strokeColor=#BD7000;fontStyle=1" parent="1" vertex="1">
          <mxGeometry x="336.5" y="340" width="120" height="30" as="geometry" />
        </mxCell>
        <mxCell id="OHG60xEiqbtdB1rDb5B0-5" value="crm_prd_info" style="rounded=0;whiteSpace=wrap;html=1;fillColor=#f0a30a;fontColor=#000000;strokeColor=#BD7000;fontStyle=1" parent="1" vertex="1">
          <mxGeometry x="336.5" y="380" width="120" height="30" as="geometry" />
        </mxCell>
        <mxCell id="OHG60xEiqbtdB1rDb5B0-6" value="erp_cust_info" style="rounded=0;whiteSpace=wrap;html=1;fillColor=#f0a30a;fontColor=#000000;strokeColor=#BD7000;fontStyle=1" parent="1" vertex="1">
          <mxGeometry x="336.5" y="430" width="120" height="30" as="geometry" />
        </mxCell>
        <mxCell id="OHG60xEiqbtdB1rDb5B0-8" value="erp_prd_cat" style="rounded=0;whiteSpace=wrap;html=1;fillColor=#f0a30a;fontColor=#000000;strokeColor=#BD7000;fontStyle=1" parent="1" vertex="1">
          <mxGeometry x="336.5" y="470" width="120" height="30" as="geometry" />
        </mxCell>
        <mxCell id="OHG60xEiqbtdB1rDb5B0-9" value="erp_locations" style="rounded=0;whiteSpace=wrap;html=1;fillColor=#f0a30a;fontColor=#000000;strokeColor=#BD7000;fontStyle=1" parent="1" vertex="1">
          <mxGeometry x="336.5" y="510" width="120" height="30" as="geometry" />
        </mxCell>
        <mxCell id="OHG60xEiqbtdB1rDb5B0-15" value="" style="image;aspect=fixed;html=1;points=[];align=center;fontSize=12;image=img/lib/azure2/general/File.svg;" parent="1" vertex="1">
          <mxGeometry x="157.32999999999998" y="370" width="24.35" height="30" as="geometry" />
        </mxCell>
        <mxCell id="OHG60xEiqbtdB1rDb5B0-32" value="" style="group" parent="1" vertex="1" connectable="0">
          <mxGeometry x="250" y="315" width="87" height="77.5" as="geometry" />
        </mxCell>
        <mxCell id="OHG60xEiqbtdB1rDb5B0-12" value="" style="edgeStyle=orthogonalEdgeStyle;rounded=0;orthogonalLoop=1;jettySize=auto;html=1;" parent="OHG60xEiqbtdB1rDb5B0-32" source="wnymyDq5whZ8nQDAgxUW-3" target="OHG60xEiqbtdB1rDb5B0-4" edge="1">
          <mxGeometry relative="1" as="geometry">
            <mxPoint x="38.5" y="22.940000000000055" as="targetPoint" />
            <Array as="points">
              <mxPoint y="40" />
              <mxPoint y="40" />
            </Array>
          </mxGeometry>
        </mxCell>
        <mxCell id="OHG60xEiqbtdB1rDb5B0-30" value="" style="edgeStyle=orthogonalEdgeStyle;rounded=0;orthogonalLoop=1;jettySize=auto;html=1;entryX=0;entryY=0.5;entryDx=0;entryDy=0;jumpSize=0;" parent="OHG60xEiqbtdB1rDb5B0-32" target="OHG60xEiqbtdB1rDb5B0-3" edge="1">
          <mxGeometry relative="1" as="geometry">
            <mxPoint x="10" y="45" as="sourcePoint" />
            <mxPoint x="-1" y="32.940000000000055" as="targetPoint" />
            <Array as="points">
              <mxPoint x="10" />
            </Array>
          </mxGeometry>
        </mxCell>
        <mxCell id="OHG60xEiqbtdB1rDb5B0-31" value="" style="edgeStyle=orthogonalEdgeStyle;rounded=0;orthogonalLoop=1;jettySize=auto;html=1;entryX=0;entryY=0.5;entryDx=0;entryDy=0;jumpSize=0;" parent="OHG60xEiqbtdB1rDb5B0-32" edge="1">
          <mxGeometry relative="1" as="geometry">
            <mxPoint x="10" y="45" as="sourcePoint" />
            <mxPoint x="87" y="77.5" as="targetPoint" />
            <Array as="points">
              <mxPoint x="10" y="77.5" />
            </Array>
          </mxGeometry>
        </mxCell>
        <mxCell id="OHG60xEiqbtdB1rDb5B0-51" value="" style="edgeStyle=orthogonalEdgeStyle;rounded=0;orthogonalLoop=1;jettySize=auto;html=1;" parent="1" edge="1">
          <mxGeometry relative="1" as="geometry">
            <mxPoint x="169" y="480" as="sourcePoint" />
            <mxPoint x="337" y="480" as="targetPoint" />
            <Array as="points">
              <mxPoint x="250" y="480" />
              <mxPoint x="250" y="480" />
            </Array>
          </mxGeometry>
        </mxCell>
        <mxCell id="OHG60xEiqbtdB1rDb5B0-52" value="" style="edgeStyle=orthogonalEdgeStyle;rounded=0;orthogonalLoop=1;jettySize=auto;html=1;" parent="1" edge="1">
          <mxGeometry relative="1" as="geometry">
            <mxPoint x="240" y="490" as="sourcePoint" />
            <mxPoint x="336.5" y="524.5" as="targetPoint" />
            <Array as="points">
              <mxPoint x="249.5" y="524.5" />
              <mxPoint x="249.5" y="524.5" />
            </Array>
          </mxGeometry>
        </mxCell>
        <mxCell id="OHG60xEiqbtdB1rDb5B0-53" value="" style="edgeStyle=orthogonalEdgeStyle;rounded=0;orthogonalLoop=1;jettySize=auto;html=1;" parent="1" edge="1">
          <mxGeometry relative="1" as="geometry">
            <mxPoint x="240" y="490" as="sourcePoint" />
            <mxPoint x="336.5" y="444.5" as="targetPoint" />
            <Array as="points">
              <mxPoint x="249.5" y="444.5" />
              <mxPoint x="249.5" y="444.5" />
            </Array>
          </mxGeometry>
        </mxCell>
        <mxCell id="OHG60xEiqbtdB1rDb5B0-54" value="Silver Layer" style="rounded=0;whiteSpace=wrap;html=1;fontSize=20;labelBackgroundColor=none;fillColor=#eeeeee;strokeColor=#36393d;fontStyle=1;" parent="1" vertex="1">
          <mxGeometry x="580" y="210" width="205" height="40" as="geometry" />
        </mxCell>
        <mxCell id="OHG60xEiqbtdB1rDb5B0-55" value="crm_sales_details" style="rounded=0;whiteSpace=wrap;html=1;fillColor=#eeeeee;strokeColor=#36393d;fontStyle=1" parent="1" vertex="1">
          <mxGeometry x="622.5" y="300" width="120" height="30" as="geometry" />
        </mxCell>
        <mxCell id="OHG60xEiqbtdB1rDb5B0-56" value="crm_cust_info" style="rounded=0;whiteSpace=wrap;html=1;fillColor=#eeeeee;strokeColor=#36393d;fontStyle=1" parent="1" vertex="1">
          <mxGeometry x="622.5" y="340" width="120" height="30" as="geometry" />
        </mxCell>
        <mxCell id="OHG60xEiqbtdB1rDb5B0-57" value="crm_prd_info" style="rounded=0;whiteSpace=wrap;html=1;fillColor=#eeeeee;strokeColor=#36393d;fontStyle=1" parent="1" vertex="1">
          <mxGeometry x="622.5" y="380" width="120" height="30" as="geometry" />
        </mxCell>
        <mxCell id="OHG60xEiqbtdB1rDb5B0-58" value="erp_cust_info" style="rounded=0;whiteSpace=wrap;html=1;fillColor=#eeeeee;strokeColor=#36393d;fontStyle=1" parent="1" vertex="1">
          <mxGeometry x="622.5" y="430" width="120" height="30" as="geometry" />
        </mxCell>
        <mxCell id="OHG60xEiqbtdB1rDb5B0-59" value="erp_prd_cat" style="rounded=0;whiteSpace=wrap;html=1;fillColor=#eeeeee;strokeColor=#36393d;fontStyle=1" parent="1" vertex="1">
          <mxGeometry x="622.5" y="470" width="120" height="30" as="geometry" />
        </mxCell>
        <mxCell id="OHG60xEiqbtdB1rDb5B0-60" value="erp_locations" style="rounded=0;whiteSpace=wrap;html=1;fillColor=#eeeeee;strokeColor=#36393d;fontStyle=1" parent="1" vertex="1">
          <mxGeometry x="622.5" y="510" width="120" height="30" as="geometry" />
        </mxCell>
        <mxCell id="OHG60xEiqbtdB1rDb5B0-74" value="" style="edgeStyle=orthogonalEdgeStyle;rounded=0;orthogonalLoop=1;jettySize=auto;html=1;" parent="1" edge="1">
          <mxGeometry relative="1" as="geometry">
            <mxPoint x="470" y="395" as="sourcePoint" />
            <mxPoint x="613.5" y="395" as="targetPoint" />
            <Array as="points">
              <mxPoint x="551" y="394.5" />
              <mxPoint x="551" y="394.5" />
            </Array>
          </mxGeometry>
        </mxCell>
        <mxCell id="OHG60xEiqbtdB1rDb5B0-75" value="" style="edgeStyle=orthogonalEdgeStyle;rounded=0;orthogonalLoop=1;jettySize=auto;html=1;" parent="1" edge="1">
          <mxGeometry relative="1" as="geometry">
            <mxPoint x="470" y="444.5" as="sourcePoint" />
            <mxPoint x="613.5" y="444.5" as="targetPoint" />
            <Array as="points">
              <mxPoint x="551" y="444" />
              <mxPoint x="551" y="444" />
            </Array>
          </mxGeometry>
        </mxCell>
        <mxCell id="OHG60xEiqbtdB1rDb5B0-76" value="" style="edgeStyle=orthogonalEdgeStyle;rounded=0;orthogonalLoop=1;jettySize=auto;html=1;" parent="1" edge="1">
          <mxGeometry relative="1" as="geometry">
            <mxPoint x="470" y="484.5" as="sourcePoint" />
            <mxPoint x="613.5" y="484.5" as="targetPoint" />
            <Array as="points">
              <mxPoint x="551" y="484" />
              <mxPoint x="551" y="484" />
            </Array>
          </mxGeometry>
        </mxCell>
        <mxCell id="OHG60xEiqbtdB1rDb5B0-77" value="" style="edgeStyle=orthogonalEdgeStyle;rounded=0;orthogonalLoop=1;jettySize=auto;html=1;" parent="1" edge="1">
          <mxGeometry relative="1" as="geometry">
            <mxPoint x="470" y="520" as="sourcePoint" />
            <mxPoint x="613.5" y="520" as="targetPoint" />
            <Array as="points">
              <mxPoint x="551" y="519.5" />
              <mxPoint x="551" y="519.5" />
            </Array>
          </mxGeometry>
        </mxCell>
        <mxCell id="OHG60xEiqbtdB1rDb5B0-78" value="" style="edgeStyle=orthogonalEdgeStyle;rounded=0;orthogonalLoop=1;jettySize=auto;html=1;" parent="1" edge="1">
          <mxGeometry relative="1" as="geometry">
            <mxPoint x="470" y="354.5" as="sourcePoint" />
            <mxPoint x="613.5" y="354.5" as="targetPoint" />
            <Array as="points">
              <mxPoint x="551" y="354" />
              <mxPoint x="551" y="354" />
            </Array>
          </mxGeometry>
        </mxCell>
        <mxCell id="OHG60xEiqbtdB1rDb5B0-79" value="" style="edgeStyle=orthogonalEdgeStyle;rounded=0;orthogonalLoop=1;jettySize=auto;html=1;" parent="1" edge="1">
          <mxGeometry relative="1" as="geometry">
            <mxPoint x="470" y="315.88" as="sourcePoint" />
            <mxPoint x="613.5" y="315.88" as="targetPoint" />
            <Array as="points">
              <mxPoint x="551" y="315.38" />
              <mxPoint x="551" y="315.38" />
            </Array>
          </mxGeometry>
        </mxCell>
        <mxCell id="dmTm0BGAwn4HaToLLWYe-10" value="" style="rounded=0;orthogonalLoop=1;jettySize=auto;html=1;entryX=0;entryY=0.5;entryDx=0;entryDy=0;" edge="1" parent="1" target="dmTm0BGAwn4HaToLLWYe-2">
          <mxGeometry relative="1" as="geometry">
            <mxPoint x="742.5" y="316.88" as="sourcePoint" />
            <mxPoint x="826.5" y="315.88" as="targetPoint" />
          </mxGeometry>
        </mxCell>
        <mxCell id="OHG60xEiqbtdB1rDb5B0-85" value="" style="rounded=0;whiteSpace=wrap;html=1;fontSize=20;labelBackgroundColor=default;fillColor=none;strokeColor=light-dark(#a4a19d, #c17f1f);fontColor=#000000;" parent="1" vertex="1">
          <mxGeometry x="580" y="250" width="206" height="330" as="geometry" />
        </mxCell>
        <mxCell id="dmTm0BGAwn4HaToLLWYe-1" value="" style="rounded=0;whiteSpace=wrap;html=1;fontSize=20;labelBackgroundColor=default;fillColor=none;strokeColor=light-dark(#bdad00, #c17f1f);fontColor=#000000;" vertex="1" parent="1">
          <mxGeometry x="870" y="249" width="206" height="330" as="geometry" />
        </mxCell>
        <mxCell id="dmTm0BGAwn4HaToLLWYe-2" value="fact_sales" style="rounded=0;whiteSpace=wrap;html=1;fillColor=#fff2cc;strokeColor=#d6b656;fontStyle=1;gradientColor=#ffd966;" vertex="1" parent="1">
          <mxGeometry x="912.5" y="310" width="120" height="30" as="geometry" />
        </mxCell>
        <mxCell id="dmTm0BGAwn4HaToLLWYe-3" value="dim_customer_info" style="rounded=0;whiteSpace=wrap;html=1;fillColor=#fff2cc;strokeColor=#d6b656;fontStyle=1;gradientColor=#ffd966;" vertex="1" parent="1">
          <mxGeometry x="912.5" y="384" width="120" height="30" as="geometry" />
        </mxCell>
        <mxCell id="dmTm0BGAwn4HaToLLWYe-7" value="dim_product_info" style="rounded=0;whiteSpace=wrap;html=1;fillColor=#fff2cc;strokeColor=#d6b656;fontStyle=1;gradientColor=#ffd966;" vertex="1" parent="1">
          <mxGeometry x="913.5" y="457.06" width="120" height="30" as="geometry" />
        </mxCell>
        <mxCell id="dmTm0BGAwn4HaToLLWYe-8" value="Gold Layer" style="rounded=0;whiteSpace=wrap;html=1;fontSize=20;labelBackgroundColor=none;fillColor=#fff2cc;strokeColor=#d6b656;fontStyle=1;gradientColor=#ffd966;" vertex="1" parent="1">
          <mxGeometry x="870" y="209" width="205" height="40" as="geometry" />
        </mxCell>
        <mxCell id="dmTm0BGAwn4HaToLLWYe-11" value="" style="rounded=0;orthogonalLoop=1;jettySize=auto;html=1;entryX=0;entryY=0.5;entryDx=0;entryDy=0;" edge="1" parent="1" target="dmTm0BGAwn4HaToLLWYe-3">
          <mxGeometry relative="1" as="geometry">
            <mxPoint x="742" y="361.88" as="sourcePoint" />
            <mxPoint x="912.5" y="370" as="targetPoint" />
          </mxGeometry>
        </mxCell>
        <mxCell id="dmTm0BGAwn4HaToLLWYe-12" value="" style="rounded=0;orthogonalLoop=1;jettySize=auto;html=1;entryX=0;entryY=0.5;entryDx=0;entryDy=0;" edge="1" parent="1" target="dmTm0BGAwn4HaToLLWYe-7">
          <mxGeometry relative="1" as="geometry">
            <mxPoint x="742.5" y="392.5" as="sourcePoint" />
            <mxPoint x="913.5" y="429.62" as="targetPoint" />
          </mxGeometry>
        </mxCell>
        <mxCell id="dmTm0BGAwn4HaToLLWYe-13" value="" style="rounded=0;orthogonalLoop=1;jettySize=auto;html=1;" edge="1" parent="1">
          <mxGeometry relative="1" as="geometry">
            <mxPoint x="742.5" y="440" as="sourcePoint" />
            <mxPoint x="913" y="399" as="targetPoint" />
          </mxGeometry>
        </mxCell>
        <mxCell id="dmTm0BGAwn4HaToLLWYe-14" value="" style="rounded=0;orthogonalLoop=1;jettySize=auto;html=1;entryX=0;entryY=0.5;entryDx=0;entryDy=0;" edge="1" parent="1" target="dmTm0BGAwn4HaToLLWYe-7">
          <mxGeometry relative="1" as="geometry">
            <mxPoint x="742.5" y="480" as="sourcePoint" />
            <mxPoint x="914" y="559.5" as="targetPoint" />
          </mxGeometry>
        </mxCell>
        <mxCell id="dmTm0BGAwn4HaToLLWYe-15" value="" style="rounded=0;orthogonalLoop=1;jettySize=auto;html=1;" edge="1" parent="1">
          <mxGeometry relative="1" as="geometry">
            <mxPoint x="742.5" y="520" as="sourcePoint" />
            <mxPoint x="910" y="400" as="targetPoint" />
          </mxGeometry>
        </mxCell>
      </root>
    </mxGraphModel>
  </diagram>
</mxfile>
